<svg width="109" height="28" viewBox="0 0 109 28" fill="none" xmlns="http://www.w3.org/2000/svg">
<g clip-path="url(#clip0_1329_1701)">
<path d="M17.2098 12.9255C17.8744 12.9255 18.4132 12.3884 18.4132 11.7259C18.4132 11.0634 17.8744 10.5264 17.2098 10.5264C16.5452 10.5264 16.0063 11.0634 16.0063 11.7259C16.0063 12.3884 16.5452 12.9255 17.2098 12.9255Z" fill="#2E263D" fill-opacity="0.9"/>
<path d="M20.1929 18.0868L20.1905 22.4986C20.1905 22.9395 19.7315 23.4682 19.2439 23.5583C16.2472 24.113 7.25695 24.8147 7.25695 24.8147C6.84787 24.8693 6.84787 25.3813 7.25933 25.3813H22.6783C23.3799 25.3813 23.9507 24.9546 23.9507 24.4307V16.1689L20.1929 18.0868Z" fill="#2E263D" fill-opacity="0.9"/>
<path d="M7.29861 1.07315C7.29861 1.07315 16.2103 1.80568 19.1429 2.32248C19.7636 2.43153 20.1893 2.83929 20.1893 3.30868V5.83105V6.99505V12.9264L23.9495 10.9374V8.55257V8.20171V1.46431C23.9495 0.938019 23.3811 0.513672 22.6771 0.513672H7.3105C6.85861 0.565826 6.8824 0.999656 7.29861 1.07315Z" fill="#2E263D" fill-opacity="0.9"/>
<path d="M6.1933 14.1765C6.31222 14.0651 6.16952 13.8755 6.02919 13.9608C3.75072 15.3382 -1.36513 18.8989 0.342531 20.665C1.03463 21.381 2.60435 21.4189 3.46294 21.4023C5.20866 21.3739 7.25881 21.0704 8.94269 20.6105C11.1593 20.0036 13.3641 19.3635 15.526 18.567C17.5833 17.8084 19.5811 16.9265 21.5504 15.9498C23.6077 14.928 25.6435 13.7475 27.5058 12.3701C27.5724 12.3227 27.6366 12.2729 27.7008 12.2231C28.4548 11.6518 29.1707 11.0188 29.8057 10.3053C30.3955 9.64148 31.1661 8.76908 30.7618 7.79C30.4336 6.99346 29.0755 6.7801 28.4143 6.73743C28.0718 6.71609 27.6866 6.70661 27.3441 6.74454C27.2846 6.75165 27.1847 6.77062 27.1871 6.80144C27.1895 6.86544 27.3322 6.8607 27.5581 6.95316C27.9577 7.11436 28.3596 7.41069 28.3787 7.86586C28.3929 8.20486 28.2407 8.55809 28.0671 8.84257C27.8792 9.15076 27.6842 9.37123 27.463 9.61541C27.042 10.0824 26.4688 10.5779 25.8885 10.9975C23.2985 12.8679 21.1794 13.8328 20.9177 13.9561C17.5428 15.5349 13.4021 16.9668 11.3472 17.4196C9.87025 17.7444 8.35761 18.0004 6.8307 17.953C6.20757 17.934 4.96369 17.7041 4.81385 17.0403C4.54034 15.855 5.46076 14.8617 6.1933 14.1765Z" fill="#2E263D" fill-opacity="0.9"/>
<path d="M38.1435 5.1585V7.59553C38.1435 9.00607 38.1126 9.89981 38.3623 10.1227C38.6644 10.3929 39.2066 10.3502 39.5515 10.3502L40.1461 10.3384V12.2207H38.7262C36.8211 12.2207 35.8698 11.2985 35.8698 9.45175V5.1585H34.3096V3.30701H35.8698V0.538086H38.1459V3.30938H40.1485V5.16087H38.1435V5.1585Z" fill="#2E263D" fill-opacity="0.9"/>
<path d="M42.3958 2.25924C42.1318 2.00795 42.001 1.69265 42.001 1.31809C42.001 0.943521 42.1318 0.628224 42.3958 0.376934C42.6598 0.125645 42.9904 0 43.3899 0C43.7871 0 44.1201 0.125645 44.3817 0.376934C44.6457 0.630595 44.7765 0.943521 44.7765 1.31809C44.7765 1.69502 44.6433 2.00795 44.3817 2.25924C44.1177 2.51053 43.7871 2.63854 43.3899 2.63854C42.9904 2.63617 42.6598 2.51053 42.3958 2.25924Z" fill="#2E263D" fill-opacity="0.9"/>
<path d="M44.5011 3.30713H42.2417V12.2208H44.5011V3.30713Z" fill="#2E263D" fill-opacity="0.9"/>
<path d="M60.3053 4.29604C60.9689 4.95745 61.2995 5.87964 61.2995 7.06497V12.2235H59.0709V7.36604C59.0709 6.67855 58.8949 6.15226 58.5453 5.78718C58.1957 5.4221 57.7176 5.23956 57.1135 5.23956C56.5094 5.23956 56.029 5.4221 55.6723 5.78718C55.3155 6.15226 55.1395 6.67855 55.1395 7.36604V12.2211H52.911V7.36604C52.911 6.67855 52.735 6.15226 52.3854 5.78718C52.0357 5.4221 51.5577 5.23956 50.9512 5.23956C50.3352 5.23956 49.85 5.4221 49.4957 5.78718C49.1389 6.15226 48.9629 6.67855 48.9629 7.36604V12.2211H46.7344V3.30511H48.9629V4.49517C49.2483 4.12535 49.6193 3.83376 50.0688 3.62277C50.5207 3.41178 51.0154 3.30511 51.5577 3.30511C52.2474 3.30511 52.8634 3.44972 53.4057 3.74131C53.9479 4.0329 54.3665 4.44776 54.6638 4.9859C54.9516 4.47858 55.3678 4.07083 55.9125 3.76264C56.4595 3.45683 57.0517 3.30273 57.6891 3.30273C58.7689 3.30511 59.6417 3.63463 60.3053 4.29604Z" fill="#2E263D" fill-opacity="0.9"/>
<path d="M71.5642 8.41868H65.2282C65.2805 9.04216 65.4994 9.53052 65.8846 9.88375C66.2699 10.237 66.7456 10.4148 67.3093 10.4148C68.1227 10.4148 68.7006 10.0663 69.0455 9.36932H71.4072C71.1575 10.2014 70.6771 10.8842 69.9683 11.4199C69.2595 11.9557 68.3891 12.2236 67.3545 12.2236C66.5197 12.2236 65.7729 12.0387 65.1093 11.6712C64.4481 11.3014 63.9296 10.7799 63.561 10.1042C63.19 9.42858 63.0068 8.64864 63.0068 7.76438C63.0068 6.87064 63.1876 6.08596 63.5539 5.41032C63.9177 4.73468 64.4291 4.21551 65.0855 3.85043C65.742 3.48772 66.4983 3.30518 67.3545 3.30518C68.1774 3.30518 68.9171 3.48298 69.5687 3.8362C70.2204 4.18943 70.727 4.69201 71.0861 5.34157C71.4453 5.99113 71.626 6.73789 71.626 7.57947C71.626 7.88765 71.6046 8.16976 71.5642 8.41868ZM69.3571 6.95362C69.3475 6.39177 69.143 5.94372 68.7482 5.60471C68.351 5.26571 67.8658 5.09739 67.2926 5.09739C66.7504 5.09739 66.2937 5.26097 65.9251 5.58812C65.5541 5.91527 65.3281 6.37043 65.2449 6.95362H69.3571Z" fill="#2E263D" fill-opacity="0.9"/>
<path d="M85.3621 11.6712C84.6938 11.3014 84.1706 10.7799 83.79 10.1042C83.4095 9.42858 83.2192 8.64864 83.2192 7.76438C83.2192 6.88013 83.4143 6.10255 83.8067 5.42454C84.1991 4.74891 84.7319 4.22736 85.4097 3.85754C86.0875 3.49009 86.8439 3.30518 87.6787 3.30518C88.5135 3.30518 89.2698 3.49009 89.9476 3.85754C90.6255 4.22736 91.1606 4.74891 91.5506 5.42454C91.9407 6.10018 92.1381 6.88013 92.1381 7.76438C92.1381 8.64864 91.9383 9.42858 91.5364 10.1042C91.1344 10.7799 90.5922 11.3014 89.9096 11.6712C89.227 12.041 88.4635 12.2236 87.6168 12.2236C86.7797 12.2236 86.0281 12.0387 85.3621 11.6712ZM88.7323 10.0331C89.0819 9.84108 89.3602 9.55186 89.5695 9.16781C89.7788 8.78376 89.881 8.31437 89.881 7.76438C89.881 6.94413 89.6646 6.31117 89.2317 5.87023C88.7989 5.42928 88.2685 5.20881 87.643 5.20881C87.0175 5.20881 86.4919 5.42928 86.0709 5.87023C85.6476 6.31354 85.4383 6.94413 85.4383 7.76438C85.4383 8.58463 85.6452 9.21759 86.0566 9.65854C86.4681 10.0995 86.9866 10.3199 87.6121 10.3199C88.0093 10.3199 88.3827 10.2251 88.7323 10.0331Z" fill="#2E263D" fill-opacity="0.9"/>
<path d="M95.3407 11.6712C94.6723 11.3014 94.1491 10.7799 93.7686 10.1042C93.388 9.42858 93.1978 8.64864 93.1978 7.76438C93.1978 6.88013 93.3928 6.10255 93.7852 5.42454C94.1776 4.74891 94.7104 4.22736 95.3882 3.85754C96.0661 3.49009 96.8224 3.30518 97.6572 3.30518C98.492 3.30518 99.2483 3.49009 99.9261 3.85754C100.604 4.22736 101.139 4.74891 101.529 5.42454C101.919 6.10018 102.117 6.88013 102.117 7.76438C102.117 8.64864 101.917 9.42858 101.515 10.1042C101.113 10.7799 100.571 11.3014 99.8881 11.6712C99.2055 12.041 98.442 12.2236 97.5953 12.2236C96.7582 12.2236 96.0066 12.0387 95.3407 11.6712ZM98.7108 10.0331C99.0604 9.84108 99.3387 9.55186 99.548 9.16781C99.7573 8.78376 99.8595 8.31437 99.8595 7.76438C99.8595 6.94413 99.6431 6.31117 99.2103 5.87023C98.7774 5.42928 98.247 5.20881 97.6215 5.20881C96.996 5.20881 96.4704 5.42928 96.0494 5.87023C95.6261 6.31354 95.4168 6.94413 95.4168 7.76438C95.4168 8.58463 95.6237 9.21759 96.0351 9.65854C96.4466 10.0995 96.9651 10.3199 97.5906 10.3199C97.9878 10.3199 98.3612 10.2251 98.7108 10.0331Z" fill="#2E263D" fill-opacity="0.9"/>
<path d="M107.243 3.57264C107.438 3.52997 107.638 3.50626 107.838 3.49204C108.028 3.48019 108.218 3.47782 108.409 3.48019C108.504 3.48256 108.599 3.48493 108.694 3.4873C108.744 3.48967 108.884 3.4873 108.884 3.4873C108.884 3.4873 108.884 3.61531 108.884 3.6485C108.884 3.72199 108.884 3.79311 108.884 3.8666C108.884 4.24591 108.884 4.62521 108.884 5.00215C108.884 5.10883 108.884 5.21314 108.884 5.32219C108.884 5.32219 108.209 5.32693 108.145 5.32693C107.876 5.32693 107.607 5.40042 107.5 5.43598C107.143 5.54977 106.81 5.77735 106.554 6.05235C106.216 6.41743 106.154 6.856 106.154 7.33013C106.154 7.36569 106.154 7.745 106.154 7.78056V12.2208H103.878V3.30713H106.154C106.154 3.30713 106.154 4.15108 106.154 4.16768C106.154 4.13449 106.223 4.0847 106.247 4.06337C106.287 4.02544 106.33 3.98988 106.375 3.95669C106.466 3.88794 106.565 3.8263 106.668 3.77415C106.849 3.67932 107.044 3.61531 107.243 3.57264Z" fill="#2E263D" fill-opacity="0.9"/>
<path d="M73.3771 5.70612C73.4651 5.53544 73.5697 5.37186 73.6887 5.21777C74.1572 4.61562 74.816 4.17231 75.5343 3.91154C76.7615 3.46585 78.2884 3.59861 79.1732 4.14386C79.1708 3.12211 79.1756 1.57644 79.1732 0.554688H81.4493C81.4516 0.554688 81.4516 0.557058 81.4516 0.557058V12.2183C81.4516 12.2207 81.4493 12.2207 81.4493 12.2207H79.3492C79.3468 12.2207 79.1756 12.2183 79.1756 12.2136C79.1756 11.8153 79.1756 11.7963 79.1756 11.3933C78.5001 12.3937 75.9933 12.5075 74.6781 11.6043C74.1382 11.2345 73.6958 10.7248 73.3866 10.1511C72.9514 9.34271 72.7968 8.39919 72.8943 7.48886C72.9585 6.87012 73.0917 6.25375 73.3771 5.70612ZM79.059 6.64491C78.8616 6.28457 78.5929 6.0072 78.2575 5.81518C77.9198 5.62315 77.5583 5.52595 77.173 5.52595C76.7877 5.52595 76.4309 5.62078 76.1027 5.80806C75.7769 5.99535 75.5105 6.27034 75.3083 6.63068C75.1062 6.99102 75.0039 7.41774 75.0039 7.91084C75.0039 8.40393 75.1062 8.83539 75.3083 9.20521C75.5105 9.57504 75.7793 9.85952 76.1098 10.0563C76.4428 10.253 76.7948 10.3526 77.173 10.3526C77.5583 10.3526 77.9198 10.2554 78.2575 10.0634C78.5952 9.87137 78.8616 9.594 79.059 9.23366C79.2564 8.87332 79.3563 8.44186 79.3563 7.93691C79.3539 7.43908 79.2564 7.00762 79.059 6.64491Z" fill="#2E263D" fill-opacity="0.9"/>
<path d="M34.8641 18.3681C35.0591 18.003 35.3065 17.6664 35.6014 17.3772C36.2103 16.775 37.0165 16.3791 37.8632 16.2416C38.4483 16.1468 39.0548 16.1824 39.628 16.3388C39.9181 16.4194 40.1988 16.5285 40.4628 16.6707C40.7363 16.8177 40.9575 17.0216 41.2119 17.1923C41.2357 16.813 41.2357 16.5783 41.2357 16.3673H43.4714V25.3284H41.2357C41.2357 25.1032 41.2286 24.6693 41.2381 24.4441C40.0394 25.6152 37.6468 25.5394 36.2959 24.6978C34.8118 23.7732 34.191 21.9075 34.3242 20.2267C34.3765 19.5819 34.5573 18.9394 34.8641 18.3681ZM40.9194 19.3662C40.7077 18.9821 40.4223 18.6858 40.0632 18.4795C39.7041 18.2733 39.3188 18.1714 38.9049 18.1714C38.4911 18.1714 38.1129 18.2709 37.7633 18.4724C37.4137 18.6716 37.1307 18.9655 36.9142 19.3496C36.6978 19.7336 36.5884 20.1888 36.5884 20.7174C36.5884 21.2461 36.6954 21.706 36.9142 22.0995C37.1307 22.4954 37.4161 22.7989 37.7705 23.0099C38.1248 23.2209 38.503 23.3252 38.9049 23.3252C39.3164 23.3252 39.7041 23.2232 40.0632 23.017C40.4223 22.8107 40.7077 22.5168 40.9194 22.1304C41.1311 21.7463 41.2357 21.284 41.2357 20.7459C41.2357 20.2101 41.1311 19.7502 40.9194 19.3662Z" fill="#10AF13"/>
<path d="M54.2386 18.3681C54.4336 18.003 54.681 17.6664 54.9759 17.3772C55.5848 16.775 56.391 16.3791 57.2377 16.2416C57.8228 16.1468 58.4293 16.1824 59.0025 16.3388C59.2926 16.4194 59.5733 16.5285 59.8373 16.6707C60.1108 16.8177 60.332 17.0216 60.5865 17.1923C60.6102 16.813 60.6102 16.5783 60.6102 16.3673H62.8459V25.3284H60.6102C60.6102 25.1032 60.6031 24.6693 60.6126 24.4441C59.4139 25.6152 57.0213 25.5394 55.6704 24.6978C54.1863 23.7732 53.5655 21.9075 53.6987 20.2267C53.7487 19.5819 53.9318 18.9394 54.2386 18.3681ZM60.2915 19.3662C60.0799 18.9821 59.7945 18.6858 59.4353 18.4795C59.0762 18.2733 58.6909 18.1714 58.2771 18.1714C57.8632 18.1714 57.4851 18.2709 57.1355 18.4724C56.7858 18.6716 56.5028 18.9655 56.2864 19.3496C56.07 19.7336 55.9605 20.1888 55.9605 20.7174C55.9605 21.2461 56.0676 21.706 56.2864 22.0995C56.5028 22.4954 56.7882 22.7989 57.1426 23.0099C57.497 23.2209 57.8751 23.3252 58.2771 23.3252C58.6885 23.3252 59.0762 23.2232 59.4353 23.017C59.7945 22.8107 60.0799 22.5168 60.2915 22.1304C60.5032 21.7463 60.6079 21.284 60.6079 20.7459C60.6102 20.2101 60.5032 19.7502 60.2915 19.3662Z" fill="#10AF13"/>
<path d="M83.1733 21.4309H76.6804C76.7351 22.071 76.9587 22.5712 77.3535 22.9339C77.7483 23.2966 78.2358 23.4768 78.8114 23.4768C79.6438 23.4768 80.2384 23.1188 80.5904 22.4052H83.0116C82.7547 23.2587 82.2624 23.958 81.537 24.5056C80.8092 25.0556 79.9173 25.3283 78.859 25.3283C78.0028 25.3283 77.2369 25.1386 76.5591 24.7617C75.8813 24.3847 75.3509 23.849 74.9727 23.1544C74.5946 22.4621 74.4043 21.6632 74.4043 20.7576C74.4043 19.8426 74.5898 19.0389 74.9656 18.3443C75.339 17.6521 75.8622 17.1187 76.5353 16.7465C77.2084 16.3743 77.9837 16.187 78.859 16.187C79.7033 16.187 80.4596 16.3672 81.1279 16.7299C81.7962 17.0926 82.3147 17.607 82.6834 18.2708C83.052 18.937 83.2375 19.7003 83.2375 20.5632C83.2375 20.888 83.2161 21.1749 83.1733 21.4309ZM80.9115 19.9303C80.902 19.3542 80.6927 18.8943 80.286 18.5482C79.8793 18.2021 79.3822 18.029 78.7948 18.029C78.2382 18.029 77.7721 18.1973 77.3915 18.5316C77.0134 18.8682 76.7803 19.3329 76.6947 19.9303H80.9115Z" fill="#10AF13"/>
<path d="M98.3417 17.2065C99.0219 17.8845 99.362 18.8304 99.362 20.0441V25.3307H97.0764V20.3547C97.0764 19.6506 96.8957 19.1101 96.5389 18.7355C96.1798 18.361 95.6898 18.1737 95.0715 18.1737C94.4531 18.1737 93.9584 18.361 93.5945 18.7355C93.2282 19.1101 93.0475 19.6506 93.0475 20.3547V25.3307H90.7642V20.3547C90.7642 19.6506 90.5859 19.1101 90.2267 18.7355C89.8676 18.361 89.3777 18.1737 88.7569 18.1737C88.1266 18.1737 87.6296 18.361 87.2633 18.7355C86.8994 19.1101 86.7163 19.6506 86.7163 20.3547V25.3307H84.4307V16.1895H86.7163V17.4103C87.0088 17.031 87.387 16.7323 87.8507 16.5166C88.3145 16.3009 88.8211 16.1918 89.3753 16.1918C90.0817 16.1918 90.7143 16.3412 91.2685 16.6399C91.8226 16.9386 92.2531 17.3629 92.5575 17.9177C92.8524 17.3961 93.2782 16.9789 93.8395 16.666C94.4008 16.353 95.0072 16.1942 95.6589 16.1942C96.7672 16.1895 97.6615 16.5285 98.3417 17.2065Z" fill="#10AF13"/>
<path d="M52.4272 24.5412C51.9824 24.8138 51.5305 25.013 51.0691 25.1386C50.6077 25.2666 50.1106 25.3283 49.5779 25.3283C48.1271 25.3283 46.995 24.9229 46.1792 24.1121C45.3634 23.3014 44.9543 22.2535 44.9543 20.9686C44.9543 19.4917 45.3896 18.3253 46.2624 17.4695C47.1353 16.6137 48.2912 16.187 49.7349 16.187C50.2676 16.187 50.7385 16.2392 51.1476 16.3435C51.5543 16.4478 51.961 16.6161 52.3677 16.8413L51.4092 18.56C51.1524 18.4107 50.9003 18.304 50.6481 18.24C50.396 18.176 50.1249 18.1452 49.8371 18.1452C49.1212 18.1452 48.5599 18.3775 48.1556 18.8374C47.7489 19.2997 47.5468 19.9516 47.5468 20.7932C47.5468 21.6016 47.7632 22.2322 48.1961 22.685C48.6289 23.1401 49.1736 23.3654 49.8276 23.3654C50.0226 23.3654 50.2629 23.3251 50.553 23.2445C50.8408 23.1639 51.1333 23.0335 51.4282 22.8509L52.4272 24.5412Z" fill="#10AF13"/>
<path d="M64.8431 18.7212C64.9311 18.5506 65.0357 18.3846 65.157 18.2305C65.6279 17.6236 66.2915 17.178 67.0145 16.9148C68.2489 16.4668 69.7853 16.5995 70.6772 17.1495C70.6748 16.1206 70.6796 14.5655 70.6772 13.5366H72.9675C72.9699 13.5366 72.9699 13.539 72.9699 13.539L72.9675 25.3306H70.6772C70.6772 24.93 70.6772 24.8518 70.6772 24.4464C69.997 25.4539 67.4735 25.5677 66.1512 24.6574C65.6089 24.2852 65.1641 23.7707 64.8526 23.1947C64.4126 22.3792 64.2604 21.4309 64.3579 20.5158C64.4197 19.8924 64.5553 19.2712 64.8431 18.7212ZM70.5606 19.6671C70.3609 19.3044 70.0921 19.0271 69.752 18.8327C69.4119 18.6383 69.0504 18.5434 68.6603 18.5434C68.2703 18.5434 67.9135 18.6383 67.5829 18.8256C67.2547 19.0152 66.9883 19.2902 66.7838 19.6529C66.5793 20.0156 66.477 20.4447 66.477 20.9426C66.477 21.4404 66.5793 21.8742 66.7838 22.2464C66.9883 22.6186 67.2571 22.9055 67.5901 23.1046C67.923 23.3037 68.2798 23.4033 68.6603 23.4033C69.0504 23.4033 69.4119 23.3061 69.752 23.1141C70.0921 22.9197 70.3609 22.6423 70.5606 22.2796C70.7604 21.9169 70.8603 21.4831 70.8603 20.9757C70.8603 20.4637 70.7604 20.0299 70.5606 19.6671Z" fill="#10AF13"/>
<path d="M100.553 27.6492L101.135 25.7882C101.485 25.9044 101.778 25.9637 102.068 25.9637C102.884 25.9637 103.466 25.3829 103.875 24.2189L100.669 16.1895H102.943L104.808 21.3077L106.615 16.1895H108.889L105.975 24.5081C105.566 25.729 105.043 26.6606 104.401 27.1846C103.818 27.7085 103.06 28.0001 102.187 28.0001C101.602 27.9408 101.078 27.8839 100.553 27.6492Z" fill="#10AF13"/>
</g>
<defs>
<clipPath id="clip0_1329_1701">
<rect width="108.889" height="28" fill="white"/>
</clipPath>
</defs>
</svg>
